<svg version="1.1" viewBox="0.0 0.0 960.0 540.0" fill="none" stroke="none" stroke-linecap="square" stroke-miterlimit="10" xmlns:xlink="http://www.w3.org/1999/xlink" xmlns="http://www.w3.org/2000/svg"><clipPath id="p.0"><path d="m0 0l960.0 0l0 540.0l-960.0 0l0 -540.0z" clip-rule="nonzero"/></clipPath><g clip-path="url(#p.0)"><path fill="#000000" fill-opacity="0.0" d="m0 0l960.0 0l0 540.0l-960.0 0z" fill-rule="evenodd"/><path fill="#000000" d="m591.27594 278.88245l-95.87399 166.36218l-15.401581 -8.881866l95.87402 -166.36221z" fill-rule="evenodd"/><path stroke="#000000" stroke-width="1.0" stroke-linejoin="round" stroke-linecap="butt" d="m591.27594 278.88245l-95.87399 166.36218l-15.401581 -8.881866l95.87402 -166.36221z" fill-rule="evenodd"/><path fill="#000000" d="m383.87482 270.07825l96.12598 166.2362l-15.370087 8.850403l-96.12598 -166.2362z" fill-rule="evenodd"/><path stroke="#000000" stroke-width="1.0" stroke-linejoin="round" stroke-linecap="butt" d="m383.87482 270.07825l96.12598 166.2362l-15.370087 8.850403l-96.12598 -166.2362z" fill-rule="evenodd"/><path fill="#000000" d="m383.98425 252.26772l192.0315 0l0 17.732285l-192.0315 0z" fill-rule="evenodd"/><path stroke="#000000" stroke-width="1.0" stroke-linejoin="round" stroke-linecap="butt" d="m383.98425 252.26772l192.0315 0l0 17.732285l-192.0315 0z" fill-rule="evenodd"/><path fill="#000000" d="m287.96722 436.07938l96.02728 -166.07874l96.00421 166.07874z" fill-rule="evenodd"/><path stroke="#000000" stroke-width="1.0" stroke-linejoin="round" stroke-linecap="butt" d="m287.96722 436.07938l96.02728 -166.07874l96.00421 166.07874z" fill-rule="evenodd"/><path fill="#000000" d="m383.98297 270.00064l96.02728 -166.07874l96.00421 166.07874z" fill-rule="evenodd"/><path stroke="#000000" stroke-width="1.0" stroke-linejoin="round" stroke-linecap="butt" d="m383.98297 270.00064l96.02728 -166.07874l96.00421 166.07874z" fill-rule="evenodd"/><path fill="#000000" d="m479.99872 436.07938l96.02728 -166.07874l96.00421 166.07874z" fill-rule="evenodd"/><path stroke="#000000" stroke-width="1.0" stroke-linejoin="round" stroke-linecap="butt" d="m479.99872 436.07938l96.02728 -166.07874l96.00421 166.07874z" fill-rule="evenodd"/><path fill="#000000" d="m424.80316 325.2756l0 0c0 -30.484406 24.712463 -55.19687 55.19684 -55.19687l0 0c14.63913 0 28.67865 5.8153687 39.03009 16.166779c10.351379 10.35144 16.166748 24.39096 16.166748 39.03009l0 0c0 30.484375 -24.712463 55.19684 -55.19684 55.19684l0 0c-30.484375 0 -55.19684 -24.712463 -55.19684 -55.19684z" fill-rule="evenodd"/></g></svg>